<svg xmlns="http://www.w3.org/2000/svg" viewBox="0 0 74 77.38"><defs><style>.cls-1{fill:#acdbdf;}.cls-2{fill:#222;}.cls-3{fill:#69779b;}</style></defs><title>meetup</title><g id="Layer_2" data-name="Layer 2"><g id="Layer_1-2" data-name="Layer 1"><path class="cls-1" d="M27.64,8.44c0-.24,0-.49,0-.73a.69.69,0,0,0-1-.65A22,22,0,0,0,18,15.86a.7.7,0,0,0,.62,1H24a.69.69,0,0,0,.56-.28,16.24,16.24,0,0,1,3.62-3.5.7.7,0,0,0,.25-.84A9.53,9.53,0,0,1,27.64,8.44Z"/><path class="cls-1" d="M48,7.06a.7.7,0,0,0-1,.65c0,.24,0,.49,0,.73a9.53,9.53,0,0,1-.79,3.82.69.69,0,0,0,.24.84A16,16,0,0,1,50,16.6a.7.7,0,0,0,.56.28H56a.69.69,0,0,0,.62-1A21.88,21.88,0,0,0,48,7.06Z"/><ellipse class="cls-2" cx="37.26" cy="8.44" rx="7.43" ry="8.44"/><path class="cls-3" d="M8.44,48.22c-.24,0-.49,0-.73,0a.7.7,0,0,0-.65,1,21.88,21.88,0,0,0,8.8,8.63.69.69,0,0,0,1-.62V51.85a.69.69,0,0,0-.28-.56,16,16,0,0,1-3.5-3.62.68.68,0,0,0-.84-.24A9.7,9.7,0,0,1,8.44,48.22Z"/><path class="cls-3" d="M7.06,27.88a.69.69,0,0,0,.65,1c.24,0,.49,0,.73,0a9.53,9.53,0,0,1,3.82.8.7.7,0,0,0,.84-.25,16.24,16.24,0,0,1,3.5-3.62.69.69,0,0,0,.28-.56V19.87a.69.69,0,0,0-1-.62A22,22,0,0,0,7.06,27.88Z"/><ellipse class="cls-2" cx="8.44" cy="38.56" rx="8.44" ry="7.75"/><path class="cls-3" d="M65.56,28.89c.24,0,.49,0,.73,0a.69.69,0,0,0,.65-1,22,22,0,0,0-8.8-8.63.69.69,0,0,0-1,.62v5.39a.69.69,0,0,0,.28.56,16.24,16.24,0,0,1,3.5,3.62.7.7,0,0,0,.84.25A9.53,9.53,0,0,1,65.56,28.89Z"/><path class="cls-3" d="M66.94,49.23a.7.7,0,0,0-.65-1c-.24,0-.49,0-.73,0a9.7,9.7,0,0,1-3.82-.79.68.68,0,0,0-.84.24,16,16,0,0,1-3.5,3.62.69.69,0,0,0-.28.56v5.39a.69.69,0,0,0,1,.62A21.88,21.88,0,0,0,66.94,49.23Z"/><ellipse class="cls-2" cx="65.56" cy="38.56" rx="8.44" ry="7.75"/><path class="cls-1" d="M27,68.94q0,.36,0,.72a.7.7,0,0,1-1,.66,21.88,21.88,0,0,1-8.63-8.8.7.7,0,0,1,.62-1h5.39a.71.71,0,0,1,.56.29,16,16,0,0,0,3.62,3.5.69.69,0,0,1,.24.84A9.53,9.53,0,0,0,27,68.94Z"/><path class="cls-1" d="M47.38,70.32a.7.7,0,0,1-1-.66c0-.24,0-.48,0-.72a9.53,9.53,0,0,0-.79-3.82.7.7,0,0,1,.25-.84,16.24,16.24,0,0,0,3.62-3.5.7.7,0,0,1,.56-.29h5.39a.71.71,0,0,1,.62,1A22,22,0,0,1,47.38,70.32Z"/><ellipse class="cls-2" cx="36.74" cy="68.94" rx="7.43" ry="8.44"/><path class="cls-3" d="M34.75,28.38a1.77,1.77,0,0,1,1.9.91h0a6.05,6.05,0,0,0-.84-3.64h0A3.11,3.11,0,0,1,37.09,28h0s.47-1.9,1.29-2.36h0a5.93,5.93,0,0,0-.77,3.64h0s.32-1,1.85-.91h0s-3.28.49-.48,3.81c0,0,0,.08,0,.11s-.27.08-1.23-1.47h0a3,3,0,0,0,.29,1.5s-.06.08-.1,0-.5-.6-.85-2.28h0a6.21,6.21,0,0,1-.74,2.27.05.05,0,0,1-.09,0,10.2,10.2,0,0,0,.24-1.52s-.05,0-.06,0c-.16.32-.69,1.35-1.05,1.49-.06,0-.11,0-.08-.07.39-.46,2.49-3.14-.58-3.84Z"/><ellipse class="cls-3" cx="35.37" cy="27.67" rx="0.32" ry="0.29"/><ellipse class="cls-3" cx="38.82" cy="27.67" rx="0.32" ry="0.29"/><ellipse class="cls-3" cx="37.11" cy="25.26" rx="0.43" ry="0.39"/><path class="cls-3" d="M41.21,29a1.78,1.78,0,0,1,1,1.85h0a6.06,6.06,0,0,0,1.45-3.44h0a3.11,3.11,0,0,1-.34,2.66h0s1.49-1.26,2.42-1.16h0A6,6,0,0,0,43,31.4h0a1.61,1.61,0,0,1,2,.35h0s-2.94-1.52-2.62,2.81a.09.09,0,0,1,0,.1c-.09,0-.26-.09-.13-1.91h0a2.9,2.9,0,0,0-.64,1.38s-.09,0-.11,0c-.07-.21,0-.78.64-2.35h0s-1.26,1.29-1.92,1.41c0,0-.08-.05-.05-.08A11.1,11.1,0,0,0,41.23,32s0-.06,0,0a4.41,4.41,0,0,1-1.72.59c-.06,0-.08-.09,0-.1.59-.15,3.86-1.09,1.78-3.46Z"/><ellipse class="cls-3" cx="42.13" cy="28.78" rx="0.29" ry="0.32" transform="translate(-5.86 46.11) rotate(-54.19)"/><ellipse class="cls-3" cx="44.93" cy="30.8" rx="0.29" ry="0.32" transform="translate(-6.34 49.22) rotate(-54.19)"/><ellipse class="cls-3" cx="44.95" cy="27.84" rx="0.39" ry="0.43" transform="translate(-3.93 48.01) rotate(-54.19)"/><path class="cls-3" d="M46.1,33.27a1.77,1.77,0,0,1-.27,2.09h0A6,6,0,0,0,49,33.42h0a3.15,3.15,0,0,1-1.83,2h0s1.94-.15,2.64.48h0a5.93,5.93,0,0,0-3.7.41h0s1.09,0,1.45,1.47h0s-1.5-3-3.77.75a.09.09,0,0,1-.1,0c-.1,0-.15-.23,1-1.63h0a3,3,0,0,0-1.32.74s-.1,0-.08-.08.41-.66,1.9-1.52h0a6.28,6.28,0,0,1-2.39,0s0-.09,0-.1a12.36,12.36,0,0,0,1.52-.25s0-.06,0-.07a4.3,4.3,0,0,1-1.75-.52c0-.05,0-.12,0-.1.57.23,3.77,1.37,3.47-1.76Z"/><ellipse class="cls-3" cx="46.96" cy="33.64" rx="0.29" ry="0.32" transform="translate(-8.21 16.53) rotate(-18.39)"/><ellipse class="cls-3" cx="48.05" cy="36.91" rx="0.29" ry="0.32" transform="translate(-9.19 17.04) rotate(-18.39)"/><ellipse class="cls-3" cx="49.8" cy="34.52" rx="0.39" ry="0.43" transform="matrix(0.95, -0.32, 0.32, 0.95, -8.35, 17.47)"/><path class="cls-3" d="M47.55,39.6a1.75,1.75,0,0,1-1.43,1.53h0a6,6,0,0,0,3.72.29h0a3.1,3.1,0,0,1-2.64.52h0s1.67,1,1.87,1.94h0a5.94,5.94,0,0,0-3.24-1.83h0a1.62,1.62,0,0,1,.31,2h0s.52-3.27-3.49-1.6a.09.09,0,0,1-.11,0c-.07-.08,0-.28,1.77-.74h0a3,3,0,0,0-1.51-.17s-.06-.08,0-.11.73-.29,2.44-.13h0A6.34,6.34,0,0,1,43.27,40s0-.1.06-.08a10.39,10.39,0,0,0,1.38.68s0,0,0-.06c-.26-.25-1.08-1.06-1.1-1.45,0,0,0-.1.08,0,.33.51,2.25,3.31,3.84.6Z"/><ellipse class="cls-3" cx="48.04" cy="40.4" rx="0.32" ry="0.29" transform="translate(-4.89 74.14) rotate(-72.58)"/><ellipse class="cls-3" cx="47.01" cy="43.7" rx="0.32" ry="0.29" transform="translate(-8.76 75.47) rotate(-72.58)"/><ellipse class="cls-3" cx="49.82" cy="42.78" rx="0.43" ry="0.39" transform="translate(-5.91 77.51) rotate(-72.58)"/><path class="cls-3" d="M45,45.58A1.78,1.78,0,0,1,43,46h0a6,6,0,0,0,2.85,2.41h0a3.14,3.14,0,0,1-2.44-1.12h0s.76,1.8.38,2.66h0a6,6,0,0,0-1.56-3.38h0s.36,1-.94,1.84h0s2.34-2.36-1.9-3.34a.11.11,0,0,1-.08-.08c0-.1.17-.22,1.87.44h0a3,3,0,0,0-1.13-1s0-.1,0-.1c.22,0,.76.19,2,1.32h0a6.34,6.34,0,0,1-.77-2.25s.07-.07.09,0a10.93,10.93,0,0,0,.72,1.36s.06,0,.06,0a4,4,0,0,1,0-1.82c0-.05.1,0,.1,0,0,.61-.11,4,2.77,2.73Z"/><ellipse class="cls-3" cx="44.96" cy="46.52" rx="0.32" ry="0.29" transform="translate(-18.9 36.17) rotate(-36.78)"/><ellipse class="cls-3" cx="42.19" cy="48.59" rx="0.32" ry="0.29" transform="translate(-20.69 34.93) rotate(-36.78)"/><ellipse class="cls-3" cx="45.01" cy="49.49" rx="0.43" ry="0.39" transform="translate(-20.67 36.8) rotate(-36.78)"/><path class="cls-3" d="M39.49,49a1.77,1.77,0,0,1-1.91-.88h0a6,6,0,0,0,.9,3.62h0a3.13,3.13,0,0,1-1.33-2.33h0s-.43,1.9-1.24,2.38h0a6,6,0,0,0,.71-3.65h0s-.31,1-1.84.94h0s3.27-.55.42-3.82c0,0,0-.08,0-.11s.26-.08,1.25,1.45h0a3,3,0,0,0-.31-1.49s.05-.08.1,0,.5.6.89,2.27h0A6.17,6.17,0,0,1,37.8,45s.1,0,.09,0a11.56,11.56,0,0,0-.21,1.52s0,0,.06,0c.16-.33.67-1.36,1-1.51,0,0,.11,0,.08.06-.39.48-2.44,3.19.64,3.84Z"/><ellipse class="cls-3" cx="38.88" cy="49.68" rx="0.32" ry="0.29" transform="translate(-0.83 0.67) rotate(-0.97)"/><ellipse class="cls-3" cx="35.43" cy="49.73" rx="0.32" ry="0.29" transform="translate(-0.84 0.61) rotate(-0.97)"/><ellipse class="cls-3" cx="37.19" cy="52.12" rx="0.43" ry="0.39" transform="translate(-0.88 0.64) rotate(-0.97)"/><path class="cls-3" d="M33,48.46a1.78,1.78,0,0,1-1-1.83h0a6,6,0,0,0-1.39,3.46h0a3.12,3.12,0,0,1,.29-2.67h0s-1.47,1.29-2.4,1.2h0a5.91,5.91,0,0,0,2.71-2.54h0s-.85.66-2-.32h0s3,1.48,2.57-2.85a.11.11,0,0,1,.05-.1c.09-.05.26.09.17,1.91h0a3,3,0,0,0,.62-1.39s.09,0,.11,0,.06.78-.61,2.36h0s1.24-1.32,1.9-1.45c0,0,.09.05.06.08A11.18,11.18,0,0,0,33,45.45s0,.06,0,0a4.21,4.21,0,0,1,1.71-.62c.06,0,.08.09,0,.1-.59.16-3.84,1.16-1.72,3.49Z"/><ellipse class="cls-3" cx="32.11" cy="48.68" rx="0.29" ry="0.32" transform="translate(-26.19 47.23) rotate(-55.16)"/><ellipse class="cls-3" cx="29.27" cy="46.71" rx="0.29" ry="0.32" transform="translate(-25.79 44.05) rotate(-55.16)"/><ellipse class="cls-3" cx="29.3" cy="49.67" rx="0.39" ry="0.43" transform="translate(-28.2 45.35) rotate(-55.16)"/><path class="cls-3" d="M28.06,44.26a1.77,1.77,0,0,1,.23-2.09h0a6,6,0,0,0-3.15,2h0a3.1,3.1,0,0,1,1.8-2h0s-2,.19-2.65-.43h0A6,6,0,0,0,28,41.27h0s-1.08,0-1.47-1.45h0s1.55,2.93,3.76-.82a.12.12,0,0,1,.1,0c.1,0,.16.23-1,1.65h0a3,3,0,0,0,1.32-.77s.09,0,.08.08c-.07.21-.41.67-1.87,1.56h0a6.23,6.23,0,0,1,2.38-.06s0,.09,0,.09a12.21,12.21,0,0,0-1.51.28s0,.06,0,.07a4.12,4.12,0,0,1,1.75.49s0,.12,0,.1c-.57-.22-3.79-1.31-3.44,1.82Z"/><ellipse class="cls-3" cx="27.19" cy="43.91" rx="0.29" ry="0.32" transform="translate(-13.02 11.5) rotate(-19.36)"/><ellipse class="cls-3" cx="26.05" cy="40.65" rx="0.29" ry="0.32" transform="translate(-12 10.93) rotate(-19.36)"/><ellipse class="cls-3" cx="24.34" cy="43.07" rx="0.39" ry="0.43" transform="translate(-12.9 10.5) rotate(-19.36)"/><path class="cls-3" d="M26.5,38a1.77,1.77,0,0,1,1.41-1.56h0a6,6,0,0,0-3.73-.23h0a3.11,3.11,0,0,1,2.63-.56h0s-1.69-1-1.9-1.9h0a5.94,5.94,0,0,0,3.27,1.77h0a1.63,1.63,0,0,1-.35-2h0s-.46,3.29,3.53,1.54a.09.09,0,0,1,.11,0c.07.07,0,.27-1.77.76h0a3.08,3.08,0,0,0,1.52.14c.05,0,.06.08,0,.11s-.72.31-2.43.18h0a6.25,6.25,0,0,1,2,1.34s0,.1-.05.08A10.32,10.32,0,0,0,29.33,37s0,0,0,.06c.26.24,1.09,1,1.13,1.43,0,.05-.06.1-.09.05C30,38,28,35.22,26.5,38Z"/><ellipse class="cls-3" cx="26" cy="37.17" rx="0.32" ry="0.29" transform="translate(-17.01 51.58) rotate(-73.55)"/><ellipse class="cls-3" cx="26.98" cy="33.85" rx="0.32" ry="0.29" transform="translate(-13.13 50.14) rotate(-73.55)"/><ellipse class="cls-3" cx="24.18" cy="34.82" rx="0.43" ry="0.39" transform="translate(-16.06 48.15) rotate(-73.55)"/><path class="cls-3" d="M28.92,31.94a1.76,1.76,0,0,1,2-.45h0a6,6,0,0,0-2.88-2.36h0a3.12,3.12,0,0,1,2.45,1.08h0s-.78-1.79-.42-2.65h0a6,6,0,0,0,1.61,3.35h0s-.37-1,.91-1.86h0s-2.29,2.4,2,3.31a.11.11,0,0,1,.08.08c0,.1-.17.22-1.88-.42h0A3,3,0,0,0,34,33s0,.1-.05.1c-.22,0-.77-.17-2.07-1.28h0a6.26,6.26,0,0,1,.81,2.24s-.07.07-.09,0a14.56,14.56,0,0,0-.74-1.35s-.07,0-.06,0a4.12,4.12,0,0,1,.08,1.81c0,.05-.1.05-.1,0,0-.61,0-4-2.81-2.68Z"/><ellipse class="cls-3" cx="28.97" cy="31" rx="0.32" ry="0.29" transform="translate(-12.91 24.22) rotate(-37.75)"/><ellipse class="cls-3" cx="31.71" cy="28.88" rx="0.32" ry="0.29" transform="translate(-11.05 25.45) rotate(-37.75)"/><ellipse class="cls-3" cx="28.87" cy="28.03" rx="0.43" ry="0.39" transform="translate(-11.12 23.54) rotate(-37.75)"/><path class="cls-3" d="M34.49,33.71h0l0,0v0h0s0,0,0,0,0,0,0,0l0,0s0,0,0,0l0,0h.08l0,0s0,0,0,0,0,0,0,0,0,0,0,0h0s0,0,0,0h0s0,0,0,0,0,0,0,0,0,0,0,0,0,0,0,0l0,0,0,0S34.48,33.7,34.49,33.71Zm.16-.13s0,0,0,0,0,0,0,0h0l0,0h0s0,0,0,0h0a0,0,0,0,0,0,0Zm.17,0a0,0,0,0,1,0,0l0,0h0l0,0,0,0,0,0s0,0,0,0h-.06s0,0,0,0a0,0,0,0,1,0,0l0,0h0s0,0,0,0,0,0,0,0l0,0Zm0,.15h0v0l0,0h0l0,0s0,0,0,0h0a0,0,0,0,1,0,0s0,0,0,0h.15s0,0,0,0,0,0,0,0h0s0,0,0,0h0s0,0,0,0,0,0,0,0,0,0,0,0h0a0,0,0,0,0,0,0h0s0,0,0,0h-.23s0,0,0,0l0,0h0v0s0,0,0,0h.06s0,0,0,0,0,0,0,0,0,0,0,0h0l0,0h0v0h0s0,0,0,0,0,0,0,0h0Zm-.22-.1,0,0h0s0,0,0,0h0s0,0,0,0h0l-.08,0v0S34.54,33.61,34.55,33.61Zm1.76,10.46h-.07s0,0,0,0h.07s0,0,0,0ZM34,34.33h0s0,0,0,0,0,0,0,0v0h0l0,0h0l0,0h0s0,0,0,0h0s0,0,0,0h0s0,0,0,0l0,0h0l0,0S34,34.33,34,34.33Zm.17-.49h.08s0,0,0,0h.1s0,0,0,0h0s0,0,0,0a0,0,0,0,0,0,0s0,0,0,0h0l0,0s0,0,0,0h0s0,0,0,0v0h0l0,0h0l0,0h0l0,0s0,0,0,0h0s0,0,0,0h0s0,0,0,0h0l-.19.1h0s0,0,0,0l0,0h0A0,0,0,0,0,34.13,33.84Zm.81-.32h0v0h0s0,0,0,0H35s0,0,0,0,0,0,0,0,0,0,0,0H35s0,0,0,0h0l0,0Zm-1.52.85s0,0,0,0h.21a0,0,0,0,1,0,0h0l0,0h0v0h0l0,0h0l0,0a0,0,0,0,1,0,0h.09v0s0,0,0,0a0,0,0,0,0,0,0s0,0,0,0h0v0h0s0,0,0,0l0,0,0,0h0l0,0,0,0h0s0,0,0,0a0,0,0,0,1,0,0s0,0,0,0l0,0h0s0,0,0,0h0s0,0,0,0h0v0h0l0,0h0s0,0,0,0h0s0,0,0,0h0l0,0a0,0,0,0,1,0,0l0,0v0h0a0,0,0,0,1,0,0v0h0s0,0,0,0l0,0v0l-.45.3h.05s0,0,0,0h0v0h-.15v0h0v0s0,0,0,0h0s0,0,0,0l0,0,0,0S33.41,34.37,33.42,34.37Zm.88-.43h.05s0,0,0,0,0,0,0,0v0s0,0,0,0h0s0,0,0,0H34.3l0,0h0a0,0,0,0,0,0,0l0,0h0l0,0h0v0h0l0,0h0v0s0,0,0,0v0s0,0,0,0h0s0,0,0,0h.08l0,0h0s0,0,0,0v0s0,0,0,0S34.29,33.94,34.3,33.94Zm.34.54a0,0,0,0,0,0,0h.07s0,0,0,0l0,0h0l0,0s0,0,0,0,0,0,0,0h0l0,0s0,0,0,0,0,0,0,0h0s0,0,0,0h0s0,0,0,0h0Zm3.2-.69h.06s0,0,0,0h0s0,0,0,0v0h0s0,0,0,0Zm1-.28H39s0,0,0,0h.08s0,0,0,0h0a0,0,0,0,1,0,0h0v0h-.07a0,0,0,0,1,0,0s0,0,0,0h0S38.83,33.51,38.84,33.51ZM35,33.56v0h0v0A0,0,0,0,0,35,33.56Zm0,.07h-.09s0,0,0,0,0,0,0,0,0,0,0,0l0,0,0,0h0l0,0h.1s0,0,0,0l0,0s0,0,0,0l0,0h0l0,0h.05v0h-.06s0,0,0,0l0,0h0s0,0,0,0,0,0,0,0a0,0,0,0,1,0,0h.07s0,0,0,0v0h.06l0,0s0,0,0,0h0v0h0s0,0,0,0h0s0,0,0,0h0s0,0,0,0,0,0,0,0,0,0,0,0l0,0,0,0h.29l0,0h.06s0,0,0,0h0v0a0,0,0,0,0,0,0H36s0,0,0,0h0s0,0,0,0h-.18v0h0s0,0,0,0l0,0h-.06s0,0,0,0h-.14l0,0s0,0,0,0h0v0a0,0,0,0,0,0,0h.08v0h0s0,0,0,0h0a0,0,0,0,0,0,0h0s0,0,0,0l0,0h0l0,0s0,0,0,0h0a0,0,0,0,1,0,0h-.06l0,0h-.07l0,0h0v0s0,0,0,0l0,0h0s0,0,0,0,0,0,0,0,0,0,0,0h0l0,0s0,0,0,0h0S35,33.64,35,33.63Zm.07-.1h.09l0,0h.18l0,0,0,0a0,0,0,0,1,0,0,0,0,0,0,0,0,0,0,0,0,0,1,0,0v0h0s0,0,0,0h0s0,0,0,0h0l0,0h-.09v0h0s0,0,0,0,0,0,0,0h0v0h0s0,0,0,0h-.06a0,0,0,0,0,0,0h0a0,0,0,0,0,0,0Zm4.23,1.92h0a0,0,0,0,0,0,0v0h0a0,0,0,0,0,0,0h0v0h0v0s0,0,0,0,0,0,0,0,0,0,0,0h0v0s0,0,0,0h0v0s0,0,0,0h0s0,0,0,0h0v0h0v0h0s0,0,0,0,0,0,0,0,0,0,0,0h0s0,0,0,0l0,0s0,0,0,0h0s0,0,0,0l0,0s0,0,0,0h0s0,0,0,0v0a0,0,0,0,1,0,0s0,0,0,0h0s0,0,0,0h-.09s0,0,0,0h0s0,0,0,0,0,0,0,0h.05s0,0,0,0,0,0,0,0,0,0,0,0h0s0,0,0,0h0a0,0,0,0,0,0,0h0v0h.06s0,0,0,0h0s0,0,0,0h0v0h0s0,0,0,0v0h-.11s0,0,0,0h0v0s0,0,0,0h0s0,0,0,0,0,0,0,0h0s0,0,0,0h.09s0,0,0,0v0H40v0s0,0,0,0h-.07s0,0,0,0h0s0,0,0,0h0s0,0,0,0,0,0,0,0h-.05a0,0,0,0,1,0,0h0s0,0,0,0h0v0s0,0,0,0h0v-.05h0l0,0h-.06v0s0,0,0,0v0a0,0,0,0,0,0,0h0v0h-.08a0,0,0,0,0,0,0h0s0,0,0,0a0,0,0,0,0,0,0v0s0,0,0,0,0,0,0,0v0h-.14s0,0,0,0h0v0h0v0h-.11s0,0,0,0,0,0,0,0,0,0,0,0h0v0Zm-.05,0h0v0h0v0h-.07Zm-.12.33v0h0a0,0,0,0,1,0,0s0,0,0,0h0s0,0,0,0h0a0,0,0,0,1,0,0h0v0a0,0,0,0,1,0,0s0,0,0,0v0h0s0,0,0,0h0s0,0,0,0v0l0,0h.05s0,0,0,0h.11l0,0h0a0,0,0,0,1,0,0s0,0,0,0,0,0,0,0,0,0,0,0,0,0,0,0,0,0,0,0,0,0,0,0,0,0,0,0,0,0,0,0h0s0,0,0,0,0,0,0,0h0v0h0s0,0,0,0l0,0h-.07s0,0,0,0h-.07v0s0,0,0,0v0a0,0,0,0,0,0,0h0s0,0,0,0h0a0,0,0,0,0,0,0h0v0Zm.08-.38h0s0,0,0,0h0v0h0s0,0,0,0h0s0,0,0,0S39.23,35.41,39.22,35.42Zm-3.76-.84s0,0,0,0h0l0,0h0s0,0,0,0l0,0a0,0,0,0,0,0,0h0s0,0,0,0,0,0,0,0,0,0,0,0,0,0,0,0,0,0,0,0h0s0,0,0,0,0,0,0,0h-.07l0,0h0v0h0s0,0,0,0a0,0,0,0,0,0,0h.06s0,0,0,0l0,0h0s0,0,0,0h0v0h0l0,0s0,0,0,0l0,0s0,0,0,0a0,0,0,0,0,0,0h-.08a0,0,0,0,1,0,0v0h-.06s0,0,0,0l0,0s0,0,0,0l0,0v0s0,0,0,0,0,0,0,0,0,0,0,0h0v0H35v0l0,0h.06s0,0,0,0,0,0,0,0v0h0s0,0,0,0H35l0,0s0,0,0,0v0h0s0,0,0,0h0l0,0s0,0,0,0,0,0,0,0,0,0,0,0,0,0,0,0h0s0,0,0,0l0,0s0,0,0,0,0,0,0,0h0s0,0,0,0h0s0,0,0,0l0,0h0a0,0,0,0,0,0,0l0,0s0,0,0,0l0,0h0s0,0,0,0h0l0,0h0v0h0v0h0v0s0,0,0,0h0l0,0,0,0s0,0,0,0,0,0,0,0h-.17s0,0,0,0h0s0,0,0,0l0,0h0l0,0h0l0,0s0,0,0,0h0a0,0,0,0,1,0,0h0l0,0h0s0,0,0,0h-.08v0s0,0,0,0h0v0h.13s0,0,0,0h.07l0,0h0s0,0,0,0,0,0,0,0,0,0,0,0h0s0,0,0,0h0s0,0,0,0v0s0,0,0,0,0,0,0,0v0s0,0,0,0h0s0,0,0,0,0,0,0,0,0,0,0,0l0,0s0,0,0,0l0,0s0,0,0,0,0,0,0,0,0,0,0,0,0,0,0,0,0,0,0,0l0,0h0s0,0,0,0,0,0,0,0l0,0h0s0,0,0,0h0s0,0,0,0h0v0s0,0,0,0,0,0,0,0h-.13s0,0,0,0h-.05s0,0,0,0,0,0,0,0a0,0,0,0,1,0,0h0a0,0,0,0,0,0,0,0,0,0,0,0,0,0s0,0,0,0h.11v0a0,0,0,0,0,0,0h0l0,0h0l0,0h.06a0,0,0,0,1,0,0l0,0s0,0,0,0a0,0,0,0,0,0,0h0s0,0,0,0v0h0s0,0,0,0,0,0,0,0l0,0h0s0,0,0,0,0,0,0,0h0l0,0H35s0,0,0,0h0s0,0,0,0,0,0,0,0,0,0,0,0,0,0,0,0h0v0h0v0s0,0,0,0,0,0,0,0,0,0,0,0h0v0h0s0,0,0,0h0s0,0,0,0,0,0,0,0h0s0,0,0,0,0,0,0,0,0,0,0,0h0s0,0,0,0,0,0,0,0,0,0,0,0,0,0,0,0h0s0,0,0,0,0,0,0,0v0s0,0,0,0,0,0,0,0h0s0,0,0,0h0s0,0,0,0,0,0,0,0h0v0s0,0,0,0,0,0,0,0l0,0h0s0,0,0,0,0,0,0,0,0,0,0,0,0,0,0,0h0s0,0,0,0l0,0h0s0,0,0,0h0s0,0,0,0l0,0v0h0s0,0,0,0h0s0,0,0,0h0s0,0,0,0a.1.1,0,0,1,0,0,0,0,0,0,1,0,0s0,0,0,0v0h0v0h0s0,0,0,0h0S35.45,34.58,35.46,34.58Zm-.63-.16s0,0,0,0h0l0,0,0,0s0,0,0,0h0s0,0,0,0Zm0-.06h0s0,0,0,0h0Zm0,0h0s0,0,0,0h0S34.82,34.33,34.81,34.33Zm-.13-.58s0,0,0,0h0s0,0,0,0h-.07l0,0s0,0,0,0,0,0,0,0l0,0s0,0,0,0l0,0Zm.07.56s0,0,0,0l0,0s0,0,0,0,0,0,0,0l0,0S34.77,34.31,34.75,34.31Zm-.07,0h0v0h0a0,0,0,0,1,0,0h0a0,0,0,0,1,0,0s0,0,0,0Zm-.23.52h0v0s0,0,0,0,0,0,0,0v0Zm-.72,2.66Zm-.06,1.65h.06v0h.07a0,0,0,0,0,0,0h0l0,0H33.6l0,0h0v0h0s0,0,0,0v0l0,0h-.07a0,0,0,0,0,0,0s0,0,0,0h-.27l0,0h0v0s0,0,0,0h0l0,0h0s0,0,0,0v0h0s0,0,0,0h0s0,0,0,0h0s0,0,0,0h0s0,0,0,0a0,0,0,0,1,0,0l0,0h.07l0,0h0s0,0,0,0l0,0v0h.07s0,0,0,0a0,0,0,0,1,0,0h0v0s0,0,0,0h.09s0,0,0,0Zm7.54-1.77h-.1a0,0,0,0,1,0,0h0a0,0,0,0,1,0,0h0v0h0s0,0,0,0h0l0,0h0v0h0v0s0,0,0,0h0v-.08Zm1.37,1.18h0s0,0,0,0v0s0,0,0,0,0,0,0,0v-.11l0,0v0a.08.08,0,0,1,0,0s0,0,0,0,0,0,0,0,0,0,0,0h0a4.72,4.72,0,0,0-.1-.64h0s0,0,0,0,0,0,0,0,0,0,0,0a0,0,0,0,0,0,0V37.3s0,0,0,0a.07.07,0,0,1,0-.05v0s0,0,0,0,0,0,0,0,0,0,0,0,0,0,0,0,0-.06,0-.07l0,0,0,0,0,0s0,0,0,0a.16.16,0,0,0,0-.06.1.1,0,0,1,0,0V36.7a.1.1,0,0,0,0,0v0a.06.06,0,0,1,0,0v0s0,0,0,0,0,0,0,0h0a5.73,5.73,0,0,0-1.43-2h0l0,.08a0,0,0,0,0,0,0v0h0s0,0,0,0,0,0,0,0h0l0,0,0,0h0s0,0,0,0h-.06s0,0,0,0h0a0,0,0,0,0,0,0l0,0h0v0h.06s0,0,0,0,0,0,0,0h0v0h0a0,0,0,0,1,0,0h0a0,0,0,0,0,0,0h0v0l0,0h0l0,0s0,0,0,0h0l0,0h0s0,0,0,0h-.09v0h0l0,0h.11s0,0,0,0h0a0,0,0,0,0,0,0h0v0h0a0,0,0,0,1,0,0s0,0,0,0h0v0h0s0,0,0,0h0l0,0,0,0h-.06l0,0h-.08l0,0h-.05s0,0,0,0l0,0h-.1s0,0,0,0h0v0H40v0H40s0,0,0,0a0,0,0,0,1,0,0h0v0h0s0,0,0,0a0,0,0,0,0,0,0h0l0,0h0v0h0s0,0,0,0h0s0,0,0,0a0,0,0,0,1,0,0s0,0,0,0,0,0,0,0v0h0s0,0,0,0h0v0h0s0,0,0,0H39.8v0s0,0,0,0v0h0a0,0,0,0,1,0,0v0h0s0,0,0,0h0s0,0,0,0h0s0,0,0,0,0,0,0,0h0s0,0,0,0h0v0h0s0,0,0,0h0v0h0s0,0,0,0v0h0s0,0,0,0h0v0s0,0,0,0,0,0,0,0a0,0,0,0,0,0,0s0,0,0,0h0v0h0v0s0,0,0,0,0,0,0,0h0v0h0s0,0,0,0h0s0,0,0,0h0v0h0s0,0,0,0h0s0,0,0,0v0h0s0,0,0,0h0s0,0,0,0h0s0,0,0,0h-.07a0,0,0,0,0,0,0h0v0h0s0,0,0,0h0a0,0,0,0,0,0,0h0v0h0s0,0,0,0h0v0h0l0,0s0,0,0,0,0,0,0,0h0s0,0,0,0a0,0,0,0,1,0,0s0,0,0,0h0v0h0v0h.14l0,0v0h0v0s0,0,0,0v0s0,0,0,0,0,0,0,0,0,0,0,0,0,0,0,0h0s0,0,0,0v0h0v0h0v0h0v0a0,0,0,0,0,0,0h0l0,0h0l0,0h0s0,0,0,0h0v0h0s0,0,0,0h0a0,0,0,0,0,0,0h0s0,0,0,0v0h0v0h0l0,0h0v0h0s0,0,0,0h0s0,0,0,0h0v0h0s0,0,0,0h0a0,0,0,0,0,0,0h0s0,0,0,0h0s0,0,0,0h0v0h0l0,0h.08s0,0,0,0v0a.06.06,0,0,0,0,0s0,0,0,0,0,0,0,0,0,0,0,0,0,0,0,0a0,0,0,0,0,0,0s0,0,0,0h0l0,0s0,0,0,0a0,0,0,0,1,0,0h0s0,0,0,0h0a0,0,0,0,0,0,0v0s0,0,0,0v0s0,0,0,0h0s0,0,0,0h0l0,0h0l0,0h0s0,0,0,0v0s0,0,0,0,0,0,0,0h0l0,0h0a0,0,0,0,1,0,0h0a0,0,0,0,0,0,0s0,0,0,0v0h0v0s0,0,0,0v0h0s0,0,0,0,0,0,0,0h0s0,0,0,0v0s0,0,0,0h0v0h0v0s0,0,0,0,0,0,0,0h.11l0,0v0h0s0,0,0,0h0a0,0,0,0,0,0,0h0s0,0,0,0v0s0,0,0,0h0v0h0s0,0,0,0a0,0,0,0,1,0,0s0,0,0,0,0,0,0,0v0h0v0h0s0,0,0,0a0,0,0,0,0,0,0s0,0,0,0,0,0,0,0v0h0s0,0,0,0h.05s0,0,0,0h0s0,0,0,0l0,0h0l0,0s0,0,0,0h0a0,0,0,0,0,0,0l0,0a.1.1,0,0,1,0,0h0l0,0h0s0,0,0,0,0,0,0,0h-.13v0s0,0,0,0h0v0a0,0,0,0,0,0,0s0,0,0,0h0v0h0s0,0,0,0l0,0v0h0a0,0,0,0,0,0,0h-.06s0,0,0,0v0h0v.06h0a0,0,0,0,1,0,0v0s0,0,0,0a0,0,0,0,1,0,0h0l0,0v0s0,0,0,0a0,0,0,0,1,0,0h0v0h0s0,0,0,0h-.07s0,0,0,0h0v0h-.06a0,0,0,0,0,0,0h0v0h0s0,0,0,0h0v0h-.06v0h0s0,0,0,0h0v0s0,0,0,0h0s0,0,0,0,0,0,0,0h0l0,0h0v0h-.06v0h0s0,0,0,0,0,0,0,0h0s0,0,0,0a0,0,0,0,1,0,0v0h0s0,0,0,0v0s0,0,0,0h0v0h0v0s0,0,0,0h0v0h0s0,0,0,0,0,0,0,0h0s0,0,0,0h0s0,0,0,0,0,0,0,0,0,0,0,0h0a0,0,0,0,1,0,0l0,0s0,0,0,0h0s0,0,0,0v0h0s0,0,0,0v0s0,0,0,0,0,0,0,0,0,0,0,0,0,0,0,0,0,0,0,0h-.05s0,0,0,0,0,0,0,0h-.08s0,0,0,0h0a0,0,0,0,0,0,0s0,0,0,0,0,0,0,0v0h0v0h0v0h0s0,0,0,0H40a0,0,0,0,0,0,0,.1.1,0,0,1,0,0h0s0,0,0,0h0v0s0,0,0,0h-.06a0,0,0,0,1,0,0h0a0,0,0,0,0,0,0h0s0,0,0,0,0,0,0,0h0s0,0,0,0l0,0h0a.1.1,0,0,1,0,0h-.05a0,0,0,0,0,0,0h0v0h-.1v0h0l0,0h0v0h0v0h.17v0s0,0,0,0h0v0h0l0,0h0v.06h0s0,0,0,0h0v0h0v0h0v0a0,0,0,0,0,0,0v0s0,0,0,0h-.42v0H39.5v0h-.09v0h0a0,0,0,0,1,0,0h0v0h0a0,0,0,0,1,0,0v0h0s0,0,0,0a0,0,0,0,0,0,0h0v.13h0s0,0,0,0h0s0,0,0,0v.05h0s0,0,0,0h0s0,0,0,0v0s0,0,0,0v0a0,0,0,0,1,0,0v.06s0,0,0,0,0,0,0,0,0,0,0,0h.07l0,0h0l0,0h0v0h0a0,0,0,0,1,0,0l0,0h0s0,0,0,0h0a0,0,0,0,0,0,0h0l0,0h0s0,0,0,0H40s0,0,0,0h0v0s0,0,0,0h0s0,0,0,0v0s0,0,0,0l0,0h0s0,0,0,0v0s0,0,0,0v0h0s0,0,0,0,0,0,0,0h0s0,0,0,0,0,0,0,0,0,0,0,0a0,0,0,0,1,0,0h.08v0h0s0,0,0,0h0v0h0s0,0,0,0,0,0,0,0v-.06h0a0,0,0,0,0,0,0v0h.1s0,0,0,0h.08v0a0,0,0,0,0,0,0h0v0l0,0h0a0,0,0,0,1,0,0h0l0,0h0v0h0v0l0,0a0,0,0,0,0,0,0,0,0,0,0,1,0,0h.07a0,0,0,0,0,0,0l0,0,0,0s0,0,0,0h.1a0,0,0,0,1,0,0h0a0,0,0,0,1,0,0h.05v0s0,0,0,0v0s0,0,0,0v.06s0,0,0,0h0s0,0,0,0h0s0,0,0,0,0,0,0,0h0s0,0,0,0v0h0s0,0,0,0,0,0,0,0,0,0,0,0v0s0,0,0,0,0,0,0,0,0,0,0,0h0v0h0s0,0,0,0h0s0,0,0,0h0v0a0,0,0,0,0,0,0h0l0,0,0,0v0h0l0,0h0s0,0,0,0v0h-.06l0,0,0,0h0v0s0,0,0,0l0,0s0,0,0,0v0h0l0,0h0s0,0,0,0v0s0,0,0,0l0,0s0,0,0,0h.08s0,0,0,0,0,0,0,0h0s0,0,0,0,0,0,0,0,0,0,0,0,0,0,0,0h0l0,0s0,0,0,0l0,0,0,0v0l0,0h0l0,0h0l0,0s0,0,0,0l0,0s0,0,0,0l0,0h0s0,0,.05,0a0,0,0,0,1,0,0,.06.06,0,0,0,0,0v.07s0,0,0,0,0,0,0,0h0s0,0,0,0v0h0s0,0,0,0,0,0,0,0,0,0,0,0,0,0,0,0l0,0s0,0,0,0h0s0,0,0,0,0,0,0,0,0,0,0,0v0h0a0,0,0,0,0,0,0s0,0,0,0,0,0,0,0v0s0,0,0,0h0v0s0,0,0,0h0l0,0s0,0,0,0l0,0h0s0,0,0,0,0,0,0,0h0s0,0,0,0h0l0,0s0,0,0,0h0s0,0,0,0v0s0,0,0,0h0l0,0h0v0s0,0,0,0h0s0,0,0,0h0a0,0,0,0,1,0,0s0,0,0,0,0,0,0,0,0,0,0,0h0s0,0,0,0h0a0,0,0,0,0,0,0h0v0h.13v0l0,0h.05s0,0,0,0,0,0,0,0h-.11s0,0,0,0v0a0,0,0,0,1,0,0v0h0v0s0,0,0,0v0h0l0,0h0s0,0,0,0h0l0,0a0,0,0,0,0,0,0s0,0,0,0h0s0,0,0,0,0,0,0,0l0,0,0,0H42a.08.08,0,0,0,0,0v0h0v0h0l0,0s0,0,0,0h0l0,0v0a0,0,0,0,1,0,0h0v0a.1.1,0,0,0,0,0v0s0,0,0,0v0s0,0,0,0,0,0,0,.06V38l0,0h-.05v0s0,0,0,0h0s0,0,0,0v0l0,0h0v0h0v0l0,0h0s0,0,0,0l0,0h0a0,0,0,0,0,0,0h-.09s0,0,0,0a0,0,0,0,0,0,0H41.6l0,0h0V38h0s0,0,0,0,0,0,0,0,0,0,0,0h0l0,0h0v0h0l0,0h-.08s0,0,0,0h0v-.08s0,0,0,0h0a0,0,0,0,0,0,0h0l0,0h-.06l0,0a0,0,0,0,1,0,0l0,0h0v0H41s0,0,0,0v0h0l0,0v-.06l0,0,0,0v0h0v0l0,0a0,0,0,0,0,0,0h0l0,0s0,0,0,0h0v0h-.07v0h-.07s0,0,0,0,0,0,0,0h-.05l0,0h0s0,0,0,0h-.14v0h-.08l0,0h-.05s0,0,0,0,0,0,0,0h0s0,0,0,0l0,0h0v0h0v0H40l0,0h0s0,0,0,0h-.11l0,0h0s0,0,0,0l0,0v0l0,0s0,0,0,.06a.08.08,0,0,0,0,0l0,0s0,0,0,0H39.6l0,0s0,0,0,0l0,0a.08.08,0,0,0,0,0s0,0,0,0v0l0,0s0,0,0,0v0a0,0,0,0,1,0,0v0h0v0a0,0,0,0,0,0,0l0,0,0,0,0,0-.05,0,0,0h-.08v0a0,0,0,0,0,0,0s0,0,0,0l0,0s0,0,0,0a0,0,0,0,0,0,0l0,.06a.08.08,0,0,0,0,0v0a.05.05,0,0,1,0,0l0,0,0,0s0,0,0,0,0,0,0,0v.07h0l0,0,0,0a0,0,0,0,1,0,0s0,0,0,0v0s0,0,0,0l0,0s0,0,0,0,0,.05,0,.06h0a0,0,0,0,0,0,0l0,0s0,0,0,0,0,0,0,0a.08.08,0,0,1,0,0v0l0,0a0,0,0,0,1,0,0v0s0,0,0,0v.07l0,0h0l0,0h0l0,0v0s0,0,0,0,0,0,0,0a0,0,0,0,0,0,0s0,0,0,0l0,0h0a0,0,0,0,0,0,0s0,0,0,0l0,0s0,0,0,0h0s0,0,0,0h0v0h0s0,0,0,0,0,0,0,0,0,0,0,0v0h0a0,0,0,0,0,0,0v0l0,0h0v0a0,0,0,0,0,0,0h0a.07.07,0,0,0,0,0h0s0,0,0,0h0s0,0,0,0l0,0v0a0,0,0,0,0,0,0l0,0,0,0h0s0,0,0,0,0,0,0,0v0l0,0h0s0,0,0,0,0,0,0,0h0l0,0s0,0,0,0l0,0s0,0,0,0l0,0h0l0,0,0,0h.1s0,0,0,0h0s0,0,0,0H40s0,0,0,0h.05s0,0,0,0h0l0,0,0,0h.06l0,0h.21l0,0a0,0,0,0,1,0,0l0,0,0,0s0,0,0,0a0,0,0,0,0,0,0h0v0h.13l0,0s0,0,0,0,0,0,0,0,0,0,0,0v0h0s0,0,0,0v.06s0,0,0,0l0,0v0a.06.06,0,0,1,0,0h0s0,0,0,0,0,0,0,0,0,0,0,0l0,0v0h0v0h0v0s0,0,0,0v0a0,0,0,0,0,0,0,0,0,0,0,1,0,0,.08.08,0,0,0,0,0,.11.11,0,0,1,0,0l0,0,0,0s0,0,0,0v0s0,0,0,0v0s0,0,0,0h0a.08.08,0,0,0,0,0s0,0,0,0v0a0,0,0,0,0,0,0v0s0,0,0,0h0s0,0,0,.05v.07a.08.08,0,0,1,0,0s0,0,0,0,0,0,0,0l0,0,0,0,0,0,0,0s0,0,0,0,0,0,0,0l0,0,0,0,0,0s0,0,0,0,0,.05,0,.07,0,0,0,0a0,0,0,0,0,0,0s0,0,0,0,0,0,0,0,0,0,0,0v0s0,0,0,0,0,0,0,0a.09.09,0,0,0,0,0v0s0,0,0,0,0,.06-.05.09a.06.06,0,0,0,0,0s0,0,0,0,0,0,0,0l0,0,0,0a.12.12,0,0,1,0,0s0,.05,0,.07,0,0,0,0,0,0,0,0l0,0s0,0,0,0,0,0,0,0a.15.15,0,0,1,0,.06s0,0,0,0l0,0H39.8s0,0,0,0a0,0,0,0,0,0,0s0,0,0,0h0a0,0,0,0,0,0,0s0,0,0,0h.12s0,0,0,0h0s0,0,0,0h0l0,0h0l0,0,0,0,0,0,0,0,0,0h0s0,0,0,0,0,0,0,0,0,0,0,0,0,0,0,0l0,0,0,0s0,0,0,0l0,0,0,0h0l0,0,0,0,0,0v0s0,0,0,0l0,0,0,0,0,0,0,0,0,0h0l0,0,0,0v0h0a0,0,0,0,1,0,0v0h0l0,0s0,0,0,0l0,0s0,0,0,0,0,0,0,0h0l0,0,0,0,0,0,0,0,.05,0,0,0h0l0,0,0,0s0,0,0,0,0,0,0,0l0,0v0s0,0,0,0l0,0,0,0a.05.05,0,0,0,0,0,.08.08,0,0,0,0,0l0,0,0,0,0,0s0,0,0,0v0s0,0,0,0,0,0,0,0v0s0,0,0,0,0,0,0,0,0,0,0,0,0,0,0,0l0,0s0,0,0,0v0l0,0,0,0,0,0,0,0,0,0s0,0,0,0,0,0,0,0,0,0,0,0,0,0,0,0,0,0,0,0l0,0a0,0,0,0,0,0,0l0,0,0,0,0,0,0,0a.17.17,0,0,0,0-.06l0,0,0,0s0,0,0,0l0-.05a.15.15,0,0,0,0-.06v0s0,0,0,0,0,0,0,0,0,0,0,0l0,0a.43.43,0,0,1,0-.05l0,0a.07.07,0,0,0,0,0,.17.17,0,0,1,0-.05l0-.06s0,0,0,0,0-.2.07-.3l0,0s0,0,0,0l0,0,0,0s0,0,0,0,0,0,0,0v0s0,0,0,0,0,0,0,0l0,0s0,0,0,0v0a.06.06,0,0,1,0-.06s0,0,0,0v0a0,0,0,0,0,0,0v0a0,0,0,0,1,0,0v-.14s0,0,0,0l0,0v-.06a0,0,0,0,0,0,0v-.07s0,0,0,0v0a.08.08,0,0,0,0,0s0,0,0,0V38.9l0,0v-.14a.22.22,0,0,0,0-.08,0,0,0,0,0,0,0s0,0,0,0v0s0,0,0,0a.1.1,0,0,1,0,0,0,0,0,0,0,0,0s0,0,0,0,0,0,0,0a.1.1,0,0,1,0,0s0,0,0,0v0l0,0v-.08s0,0,0,0v.05h0v0l0,0v0a0,0,0,0,0,0,0v0a.08.08,0,0,0,0,0v0a.43.43,0,0,1,0,.05v0a0,0,0,0,1,0,0v0a0,0,0,0,1,0,0s0,0,0,0a0,0,0,0,0,0,0s0,0,0,.05,0,0,0,0,0,0,0,0,0,0,0,0l0,.05a.07.07,0,0,0,0,0l0,.05v.1a.78.78,0,0,1,0,.09v0a.19.19,0,0,1,0,.07.26.26,0,0,1,0,.09.54.54,0,0,1,0,.08s0,0,0,.07,0,0,0,.07,0,0,0,.07,0,0,0,.07,0,0,0,.07,0,0,0,.05a.22.22,0,0,0,0,.08s0,0,0,0,0,0,0,0l0,0,0,0v0s0,0,0,0a5.14,5.14,0,0,0,.07-.88Zm-.71-2h0a0,0,0,0,1,0,0l0,0,0,0s0,0,0,0,0,0,0,0v0h0s0,0,0,0l0,0s0,0,0,0h0v0l0,0s0,0,0,0S41.86,36.6,41.87,36.59Zm.32.46s0,0,0,0,0,0,0,0h-.07a0,0,0,0,0,0,0v0h0l0,0h0a0,0,0,0,1,0,0h-.1l0,0s0,0,0,0,0,0,0,0l0,0h-.1v0s0,0,0,0h0v0h0v0s0,0,0,0a.1.1,0,0,1,0,0v0s0,0,0,0,0,0,0,0,0,0,0,0,0,0,0,0,0,0,0,0h0v-.08h0s0,0,0,0,0,0,0,0v0s0,0,0,0v0h0s0,0,0,0,0,0,0,0h0a0,0,0,0,1,0,0s0,0,0,0v0h0s0,0,0,0h0v0s0,0,0,0,0,0,0,0,0,0,0,0,0,0,0,0v0h0l0,0h0s0,0,0,0,0,0,0,0a0,0,0,0,0,0,0s0,0,0,0l0,0a0,0,0,0,1,0,0,0,0,0,0,0,0,0h0s0,0,0,0l0,0,0,0v0s0,0,0,0v0S42.2,37.05,42.19,37.05Zm-.68,4.56a0,0,0,0,0,0,0l0,0v0a0,0,0,0,1,0,0h0a0,0,0,0,1,0,0s0,0,0,0l0,0a0,0,0,0,1,0,0v0s0,0,0,0h0v0h0v-.06s0,0,0,0h0v0h0v0h0s0,0,0,0l0,0a0,0,0,0,1,0,0,.11.11,0,0,0,0,0v0S41.51,41.6,41.51,41.61Zm.06-.44v0h0v0l0,0v0s0,0,0,0h0a0,0,0,0,1,0,0v0s0,0,0,0v0s0,0,0,0v0a0,0,0,0,1,0,0v0s0,0,0,0,0,0,0,0,0,0,0,0v0s0,0,0,0v0a.11.11,0,0,0,0,0s0-.05,0-.06,0-.07,0-.07v.06Zm.25-.48s0,0,0,0v0s0,0,0,0a0,0,0,0,1,0,0h0l0,0S41.82,40.68,41.82,40.69Zm-1-3.55h0v0h0v0h-.07s0,0,0,0a0,0,0,0,0,0,0h0v0h0v0s0,0,0,0h0v0h0s0,0,0,0h0v0h0s0,0,0,0h0s0,0,0,0v-.06h0s0,0,0,0Zm-.11-.22h0l0,0v0h0v0l0,0h0s0,0,0,0,0,0,0,0,0,0,0,0v0s0,0,0,0v0h0v0h0v0h0A0,0,0,0,1,40.73,36.92Zm-2.2-2.25s0,0,0,0h-.06s0,0,0,0,0,0,0,0h0s0,0,0,0,0,0,0,0h0s0,0,0,0,0,0,0,0h0s0,0,0,0h0a0,0,0,0,0,0,0h0a0,0,0,0,0,0,0s0,0,0,0v0h-.05a0,0,0,0,1,0,0s0,0,0,0l0,0h0v0a0,0,0,0,1,0,0h0a0,0,0,0,0,0,0l0,0h0l0,0h0v0h-.06s0,0,0,0v0h0s0,0,0,0h-.09v0h0s0,0,0,0H38s0,0,0,0,0,0,0,0,0,0,0,0h0s0,0,0,0v0s0,0,0,0h-.12s0,0,0,0h0l0,0h0s0,0,0,0h0v0h0s0,0,0,0h0s0,0,0,0h.06s0,0,0,0,0,0,0,0h0s0,0,0,0h.07v0h.09l0,0h0s0,0,0,0h0s0,0,0,0l0,0v0s0,0,0,0S38.54,34.69,38.53,34.67Zm3.1,7.15,0,0s0,0,0,0l0,0,0,0,0,0s0,0,0,0l0,0,0,0,0,0,0,0s0,0,0,0,0,0,0,0,0,0,0,0,0,0,0,0l0,0,0,0,0,0h0l0,0v0l0,0s0,0,0,0l0,0,0,0,0,0,0,0,0,0v0s0,0,0,0,0,0,0,0l0,0,0,0,0,0s0,0,0,0l0,0h0a5.23,5.23,0,0,0,.66-.83h0Zm-2.75-8.2h0l0,0h0s0,0,0,0,0,0,0,0l0,0s0,0,0,0l0,0v0h0a0,0,0,0,1,0,0h0s0,0,0,0h0l0,0h-.1l0,0h0l0,0h.1s0,0,0,0h0a0,0,0,0,0,0,0s0,0,0,0l0,0h0l0,0h0l0,0s0,0,0,0h0s0,0,0,0,0,0,0,0h0s0,0,0,0h0s0,0,0,0h-.05s0,0,0,0h0a0,0,0,0,0,0,0h0v0h.15s0,0,0,0h0s0,0,0,0h0s0,0,0,0h0l0,0s0,0,0,0h0s0,0,0,0,0,0,0,0Zm1.82,1.79h0s0,0,0,0l0,0v0h0s0,0,0,0h0s0,0,0,0S40.71,35.42,40.7,35.41Zm.13-.07h0s0,0,0,0v0h0a0,0,0,0,0,0,0,0,0,0,0,0,0,0ZM37.74,34h-.06s0,0,0,0h.13v0s0,0,0,0h0v0h0ZM40.8,35.3h0a0,0,0,0,0,0,0h0s0,0,0,0,0,0,0,0Zm1.09,2.3a0,0,0,0,0,0,0s0,0,0,0,0,0,0,0h0v.05Zm.26,0s0,0,0,0,0,0,0,0h0s0,0,0,0v0s0,0,0,0h0v0a0,0,0,0,0,0,0h0Zm-.41,0s0,0,0,0,0,0,0,0h.08s0,0,0,0h0s0,0,0,0l0,0H41.7a0,0,0,0,0,0,0s0,0,0,0Zm-6-1.36h0a0,0,0,0,0,0,0h0v0a0,0,0,0,0,0,0h-.14s0,0,0,0,0,0,0,0,0,0,0,0h0s0,0,0,0h0s0,0,0,0h0s0,0,0,0,0,0,0,0,0,0,0,0h0v0h0s0,0,0,0l0,0h0s0,0,0,0h0s0,0,0,0v0a0,0,0,0,0,0,0h0s0,0,0,0h0l0,0h0s0,0,0,0v0l0,0v0l0,0s0,0,0,0l0,0v0h0s0,0,0,0h0v0h0s0,0,0,0,0,0,0,0h0v0s0,0,0,0l0,0s0,0,0,0,0,0,0,0h.14s0,0,0,0h.06l0,0h0s0,0,0,0h0s0,0,0,0l0,0h0a0,0,0,0,0,0,0h.06l0,0h0s0,0,0,0h0l0,0v0h0s0,0,0,0v0s0,0,0,0l0,0v0h0s0,0,0,0h0s0,0,0,0h0s0,0,0,0v0h0s0,0,0,0,0,0,0,0,0,0,0,0h0s0,0,0,0h0v0s0,0,0,0h0s0,0,0,0h0a0,0,0,0,0,0,0h0s0,0,0,0,0,0,0,0,0,0,0,0h0s0,0,0,0a0,0,0,0,0,0,0h0a0,0,0,0,1,0,0h0Zm-1.6-1.41H34l0,0s0,0,0,0,0,0,0,0,0,0,0,0l0,0h0s0,0,0,0,0,0,0,0Zm.11.11,0,0v0h0l0,0h0v0h0s0,0,0,0v0s0,0,0,0h0s0,0,0,0Zm-.5.84s0,0,0,0,0,0,0,0h.06a0,0,0,0,0,0,0s0,0,0,0S33.73,35.85,33.72,35.85Zm-.31.79s0,0,0,0h0s0,0,0,0h-.08s0,0,0,0Zm.85-1.83h0a0,0,0,0,1,0,0s0,0,0,0,0,0,0,0l0,0,0,0h0s0,0,0,0h0s0,0,0,0v0s0,0,0,0h0s0,0,0,0h0l0,0v0h0v0l0,0h0s0,0,0,0h-.05s0,0,0,0v0H34a0,0,0,0,1,0,0v0l0,0h0l0,0h0s0,0,0,0,0,0,0,0,0,0,0,0h.09s0,0,0,0h0v0s0,0,0,0Zm3,6.54a.17.17,0,0,1,0-.05v0s0,0,0,0h-.07s0,0,0,0h0l0,0-.1-.07-.05,0,0,0,0,0h0s0,0,0,0,0,0,0,0h-.08s0,0,0,0l0,0h-.14s0,0,0,0,0,0,0,0v0s0,0,0,0,0,0,0,0h0v0l0,0a.1.1,0,0,0,0,0,.15.15,0,0,0,0,0h-.05l0,0h0a0,0,0,0,0,0,0h-.12l0,0s0,0,0,0a0,0,0,0,0,0,0s0,0,0,0h0l0,0h0l0,0a0,0,0,0,1,0,0s0,0,0,0h0l0,0v-.06H36s0,0,0,0v0a0,0,0,0,0,0,0h-.09l0,0h0l0,0h.05l0,0v0h0s0,0,0,0v0h0a0,0,0,0,1,0,0h0s0,0,0,0l0,0s0,0,0,0,0,0,0,0,0,0,0,0l0,0,0,0a.06.06,0,0,0,0,0s0,0,0,0,0,0,0,0v0s0,0,0,0l0,0h0l0,0a.1.1,0,0,1,0,0l0,0h-.08s0,0,0,0l0,0h-.09s0,0,0,0l0,0s0,0,0,0,0,0,0,0h0s0,0,0,0h-.09s0,0,0,0v0l0,0,0,0h-.05s0,0,0,0,0,0,0-.05l-.09-.06s0,0-.05,0H35l0,0s0,0,0,0,0,0,0,0,0,0,0,0,0,0,0,0,0,0,0,0,0,0,0,0h0s0,0,0,0h0s0,0,0,0h0s0,0,0,0h0a0,0,0,0,1,0,0h.05a0,0,0,0,0,0,0s0,0,0,0h-.09l0,0s0,0,0,0a0,0,0,0,0,0,0h-.12l0,0s0,0,0,0h-.15s0,0,0,0a.09.09,0,0,0,0-.05s0,0,0,0h-.09s0,0,0,0,0,0,0,0,0,0,0,0h0s0,0,0,0v0a0,0,0,0,1,0,0h-.07l0,0v0l0,0h0l0,0v0s0,0,0,0h0v0s0,0,0,0h0s0,0,0,0,0,0,0,0l0,0h0s0,0,0-.05,0,0,0,0,0,0,0,0,0,0,0,0l0,0s0,0,0,0,0,0,0,0,0,0,0,0h-.05l0,0s0,0,0,0v0h-.12a0,0,0,0,0,0,0s0,0,0,0,0,0,0,0,0,0,0,0,0,0,0,0l0,0h0s0,0,0,0h0s0,.08,0,.08,0,0,0,0,0,0,0,0h0s0,0,0,0,0,0,0,0l0,0,0,0s0,0,0,0l0,0s0,0,0,0h0s0,0,0,0h0l0,0h-.06l0,0H33.3s0,0,0,0l0,0s0,0,0,0,0,0,0,0l0,0h0a0,0,0,0,1,0,0s0,0,0,0,0,0,0,0v0h0v-.08s0,0,0,0v0a0,0,0,0,0,0,0v0s0,0,0,0v0s0,0,0,0v0s0,0,0,0h0v0s0,0,0,0h-.25a0,0,0,0,0,0,0h0s0,0,0,0h0v0l0,0V39.3s0,0,0,0v0h0s0,0,0,0,0,0,0,0v0s0,0,0,0v-.11h0a0,0,0,0,1,0,0V39h0s0,0,0,0,0,0,0,0h-.16v0h0s0,0,0,0v0h0v0a0,0,0,0,1,0,0v0h0s0,0,0,0h0s0,0,0,0l0,0,0,0h-.1l0,0,0,0h0v0h0v0l0,0v0h0V39l0,0v-.24s0,0,0,0,0,0,0,0,0,0,0,0,0,0,0,0a0,0,0,0,0,0,0v-.1s0,0,0,0,0,0,0,0h0s0,0,0,0v0s0,0,0,0a0,0,0,0,0,0,0h0v0s0,0,0,0h0l0,0s0,0,0,0v0h0v0h0l0,0s0,0,0,0h0s0,0,0,0h.06s0,0,0,0l0,0s0,0,0,0h0s0,0,0,0h0s0,0,0,0a0,0,0,0,1,0,0s0,0,0,0,0,0,0,0h0s0,0,0,0,0,0,0,0h0s0,0,0,0v0s0,0,0,0h0s0,0,0,0h0s0,0,0,0h.13v0h0s0,0,0,0l0,0h0l0,0v0s0,0,0,0,0,0,0,0h0l0,0v0h0s0,0,0,0l0,0h0s0,0,0,0v0s0,0,0,0,0,0,0,0v0s0,0,0,0h0v.06h0v0s0,0,0,0h0v0h0l0,0v0h.06a.11.11,0,0,0,0,0s0,0,0,0v-.08s0,0,0,0v0s0,0,0,0v0l0,0v0h0s0,0,0,0,0,0,0,0v0h0v0s0,0,0,0v-.12s0,0,0,0,0,0,0,0l0,0s0,0,0,0,0,0,0,0,0,0,0,0h0l0,0,0,0h0l0,0h0s0,0,0,0h.08s0,0,0,0,0,0,0,0l0,0s0,0,0,0,0,0,0,0l0,0h0s0,0,0,0l0,0h0s0,0,0,0,0,0,0,0,0,0,0,0h0s0,0,0,0,0,0,0,0h0s0,0,0,0a0,0,0,0,0,0,0s0,0,0,0h0l0,0,0,0h0v0s0,0,0,0,0,0,0,0,0-.05,0-.05h0s0,0,0,0,0,0,0,.06,0,0,0,0,0,0,0,0,0,0,0,0,0,0,0,0a0,0,0,0,1,0,0v0a0,0,0,0,1,0,0l0,0h0l0,0h0a.14.14,0,0,0,0,0s0,0,0,0h0v0a0,0,0,0,0,0,0l0,0h0l0,0,0,0,0,0s0,0,0,0h0s0,0,0,0h0s0,0,0,0h0s0,0,0,0H34l0,0h0s0,0,0,0h0l0,0h.14s0,0,0,0v0s0,0,0,0h0s0,0,0,0h.07v0h0a0,0,0,0,0,0,0h0v-.1s0,0,0,0,0,0,0,0,0,0,0,0h0l0,0h0s0,0,0,0h.05l0,0h.07l0,0s0,0,0,0h.06s0,0,0,0h0s0,0,0,0h0l0,0h0s0,0,0,0h0s0,0,0,0,0,0,0,0h-.09l0,0v0h0l0,0s0,0,0,0,0,0,0,0,0,0,0,0,0,0,0,0l0,0,0,0h0s0,0,0,0l0,0h.08l.08,0,.06,0h.05l0,0h.12l0,0s0,0,0,0l0,0s0,0,0,0v0h-.06s0,0,0,0h0s0,0,0,0a0,0,0,0,1,0,0,0,0,0,0,1,0,0s0,0,0,0h0v0h0a0,0,0,0,1,0,0h0s0,0,0,0h-.06a0,0,0,0,0,0,0h0l0,0h0v0l0,0s0,0,0,0h0l0,0s0,0,0,0v0l0,0h0s0,0,0,0h0a0,0,0,0,1,0,0s0,0,0,0h0l0,0,0,0,0,0h0s0,0,0,0v0s0,0,0,0l0,0H34.7l-.07,0,0,0h-.05l0,0h0v0l0,0h-.09l0,0h0s0,0,0,0h0v0h0l0,0h0l0,0,0,0h0l0,0h0l0,0,0,0h0s0,0,0,0h0l0,0s0,0,0,0l0,0h0v0h.23s0,0,0,0h.27s0,0,0,0a.09.09,0,0,0,0,0l0,0s0,0,0,0h.08l0,0h0l0,0h0l0,0s0,0,0,0l0,0s0,0,0,0l0,0,0,0,0,0s0,0,0,0h-.08s0,0,0,0h0s0,0,0,0v0h-.08s0,0,0,0h0l0,0,0,0h0l0,0h.11s0,0,0,0h0s0,0,0,0h0s0,0,0,0h-.06v0h0s0,0,0,0h-.07v0h0s0,0,0,0l0,0v-.07l0,0s0,0,0,0h0v0h0s0,0,0,0v0s0,0,0,0,0,0,0,0v-.09h0v-.06h0l0,0a0,0,0,0,1,0,0l0,0s0,0,0,0v0l0,0,0,0v0s0,0,0,0,0,0,0,0l0,0,0,0h0a0,0,0,0,1,0,0h0v0h0s0,0,0,0h0s0,0,0,0h0v0a0,0,0,0,1,0,0h0s0,0,0,0h0s0,0,0,0l0,0v0l0,0s0,0,0,0h0v0s0,0,0,0v0h-.07s0,0,0,0h0s0,0,0,0,0,0,0,0h0s0,0,0,0l0,0s0,0,0,0v0h-.06s0,0,0,0,0,0,0,0H34.4l0,0h0s0,0,0,0h0s0,0,0,0,0,0,0,0a0,0,0,0,0,0,0h0v0l0,0h0a0,0,0,0,0,0,0s0,0,0,0,0,0,0,0,0,0,0,0,0,0,0,0l-.05,0h0l0,0h0v0h0s0,0,0,0v0s0,0,0,0v0l0,0a.05.05,0,0,1,0,.05l0,0,0,0a0,0,0,0,1,0,0h0l0,0h-.07v0s0,0,0,0V36a0,0,0,0,1,0,0h0l0,0h0v0a0,0,0,0,1,0,0v0h0v0h0v0s0,0,0,0l0,0a0,0,0,0,1,0,0V36l0,0v0h0l0,0v0s0,0,0,0,0,0,0,0,0,0,0,0a0,0,0,0,0,0,0s0,0,0,0,0,0,0,0,0,0,0,0h-.13v0s0,0,0,0,0,0,0,0h0l0,0h0v-.07h0a0,0,0,0,0,0,0h-.12s0,0,0,0h0v0h0s0,0,0,0h0l0,0v0h0l0,0h0v0h0a.08.08,0,0,1,0,0l0,0s0,0,0,0h0s0,0,0,0h0l0,0,0,0h0s0,0,0,0h0l0,0,0,0h0l0,0,0,0a0,0,0,0,0,0,0s0,0,0,0h.09s0,0,0,0v0l0,0h0s0,0,0,0h0s0,0,0,0h.1v0s0,0,0,0h.1v0l0,0s0,0,0,0h0l0,0s0,0,0,0h-.06a0,0,0,0,1,0,0h0v0s0,0,0,0h.09v0h0a0,0,0,0,0,0,0h0v0a0,0,0,0,1,0,0h.07s0,0,0,0h0s0,0,0,0h0v0h0s0,0,0,0v0h0s0,0,0,0h0s0,0,0,0h0s0,0,0,0h.08s0,0,0,0h0s0,0,0,0h0s0,0,0,0,0,0,0,0v0s0,0,0,0h0l0,0h0l0,0h0s0,0,0,0h0s0,0,0,0h0s0,0,0,0v0h-.08s0,0,0,0h0l0,0h0v.06h-.07v0h0a0,0,0,0,1,0,0h0s0,0,0,0h0v0h0s0,0,0,0h0v0s0,0,0,0h0v0h0v0h0v0s0,0,0,0h0s0,0,0,0v0l0,0h0s0,0,0,0h0l0,0h0v0h0s0,0,0,0h0s0,0,0,0h0s0,0,0,0v0s0,0,0,0h0s0,0,0,0a0,0,0,0,0,0,0,0,0,0,0,1,0,0v0a0,0,0,0,1,0,0h.07s0,0,0,0,0,0,0,0,0,0,0,0h0l0,0h0s0,0,.05,0h0l0,0h0s0,0,0,0h-.11l0,0H34.4l0,0h0v0h0v0h0s0,0,0,0h0s0,0,0,0,0,0,0,0l0,0,0,0s0,0,0,0l0,0,0,0,0,0,0,0s0,0,0,0l0,0s0,0,0,0h0s0,0,0,0,0,0,0,0l0,0,0,0,0,0h0v0h0l0,0s0,0,0,0h0v0h0v0h0v0h0s0,0,0,0h0l0,0h0s0,0,0,0,0,0,0,0h-.08s0,0,0,0h0v0h0s0,0,0,0h0v0s0,0,0,0,0,0,0,0h-.08a0,0,0,0,1,0,0h0s0,0,0,0h0s0,0,0,0h-.06s0,0,0,0,0,0,0,0l0,0h0l0,0v0l0,0s0,0,0,0,0,0,0,0h0v0l0,0h-.07v0s0,0,0,0h0s0,0,0,0h0s0,0,0,0h0s0,0,0,0,0,0,0,0l-.27.23s0,0,0,0l0,0,0,0h0s0,0,0,0a0,0,0,0,0,0,0h0l0,0v0h0l0,0h0a5.73,5.73,0,0,0-1.21,1.78v0s0,0,0,0l0,0s0,0,0,0,0,0,0,.05a.08.08,0,0,1,0,0,.24.24,0,0,1,0,.09.19.19,0,0,0,0,.07.14.14,0,0,0,0,.06l0,0s0,0,0,.06,0,0,0,0v.06s0,0,0,0v0a.21.21,0,0,0,0,.06v0s0,.08,0,.09,0,0,0,0,0,0,0,.05,0,0,0,.06,0,0,0,.05,0,0,0,0a.06.06,0,0,0,0,0v0s0,0,0,0l0,0v0a0,0,0,0,0,0,0s0,0,0,0v.06s0,0,0,0v0s0,.05,0,.06,0,.1,0,.12,0,.07,0,.07a.06.06,0,0,1,0,0s0,0,0,0v.07h0v0h0s0,0,0,0a0,0,0,0,1,0,0s0,0,0,0a.05.05,0,0,0,0,0h0v.13l0,0,0,0v0s0,0,0,0v0a0,0,0,0,1,0,0v0h0l0,0s0,0,0,0,0,0,0,0,0,0,0,0h0v0h0v0a.11.11,0,0,0,0,0v0l0,0v-.11a.1.1,0,0,0,0,0l0-.05v0s0,0,0,0,0,0,0,0,0,0,0,0v0s0,0,0,0v-.07a0,0,0,0,1,0,0s0,0,0,0,0,0,0,0a.2.2,0,0,1,0,0l0,0a.54.54,0,0,1,0,.15c0,.05,0,.12,0,.14s0,.06,0,.08a.14.14,0,0,0,0,.06s0,0,0,.05a.16.16,0,0,0,0,.07s0,0,0,0,0,.05,0,.06l0,0,.05.08a.93.93,0,0,1,0,.1V39a.05.05,0,0,1,0,0v0s0,0,0,0v0s0,0,0,0,0,.06,0,.08,0,0,0,0l0,0,0,0s0,0,0,0,0,0,0,0l0,0s.05,0,.06,0,.06,0,.07.05l0,0,.06,0,0,0,0,0,0,0h0l0,0a0,0,0,0,1,0,0l.1.13a.07.07,0,0,0,0,0h0l0,0,.07,0,0,0h0s0,0,0,0,0,0,0,0h0s0,0,0,0l0,0,0,0s0,0,0,0,0,0,0,0,0,0,0,0,0,0,0,.05l0,0v0l0,0h0s0,0,.06,0l0,0a0,0,0,0,0,0,0h0s0,0,0,0h0l0,0,0,0s0,0,0,0h0l0,0,0,0s0,0,0,0,0,0,0,0,0,0,0,0,0,0,0,0v0s0,0,0,0h0v0h0a0,0,0,0,1,0,0h0s0,0,0,0v0s0,0,0,0,0,0,0,0l0,0a0,0,0,0,0,0,0l0,0a.11.11,0,0,0,0,.05s0,0,0,0v0s0,0,0,0a.07.07,0,0,0,0,.05h0l0,0v0h-.06v0s0,0,0,0,0,0,0,0h0s0,0,0,0,0,0,0,0,0,0,0,0,0,0,0,0l0,0s0,0,0,0,0,0,0,0a0,0,0,0,1,0,0s0,0,0,0a.07.07,0,0,0,0,.05h0s0,0,0,0h0s0,.05,0,.06h0a.13.13,0,0,1,0,0s0,0,0,.05,0,0,0,0,0,0,0,0a0,0,0,0,0,0,0l0,0s0,0,0,0l0,0s0,0,0,0,0,0,0,0,0,0,.06,0a1.79,1.79,0,0,0,.16.19,1.3,1.3,0,0,1,.15.19l.06.08s.34.16.36.18,0,0,0,0,.08,0,.08,0a.11.11,0,0,0,0,0s0,0,0,0a.08.08,0,0,1,0,0,.11.11,0,0,0,0,.06s0,0,0,0,0,0,0,.07a.35.35,0,0,0,0,.11s0,0,0,.06,0,0,0,.05,0,0,0,0,0,0,0,.08a.54.54,0,0,0,0,.08S35,43,35,43s0,0,0,0a.48.48,0,0,1,.09.14.79.79,0,0,1,0,.13s0,.06,0,.08a0,0,0,0,0,0,0s.09.05.11.1.09.11.1.13,0,0,0,0,0,0,0,0l.07.09s0,0,0,0,0,0,0,0,0,0,0,.05,0,0,0,0,0,0,0,0,0,0,0,0h0s0,0,0,0l0,0s0,0,0,0,0,0,0,0,0,0,0,0l0,0,.12.09.05,0h0a0,0,0,0,1,0,0l0,0,0,0h0s0,0,0,0,0,0,0,0a0,0,0,0,0,0,0h.13s0,0,0,0h0l0,0h-.07l0,0h0v0h0s0,0,0,0v0s0,0,0,0l0,0,0,0v0l0,0,0,0h0a0,0,0,0,1,0,0s0,0,0,0h0v0l0,0v0s0,0,0,0a0,0,0,0,0,0,0v0h-.06s0,0,0,0h0v0l0,0v0h0l0,0h.08a0,0,0,0,0,0,0l0,0v0s0,0,0,0h.05s0,0,0,0,0,0,0,0l0,0h0v0h0v0h0v0h0v-.06s0,0,0,0l0,0h0v0l0,0h.07s0,0,0,0h.11l0,0s0,0,0,0h0v0s0,0,0,0l0,0v0h0v0s0,0,0,0,0,0,0,0l0,0h0v0l0,0h0v0s0,0,0,0h0s0,0,0,0h0l0,0v0h0v0s0,0,0,0h0v0h0s0,0,0,0a0,0,0,0,0,0,0v-.11h0v0s0,0,0,0v0h0s0,0,0,0h0s0,0,0,0h0l.05,0h0l0,0v0h.17l0,0,0,0h0a0,0,0,0,0,0,0v-.05l0,0,0,0v0s0,0,0,0h0s0,0,0,0a0,0,0,0,1,0,0v0h0s0-.06,0-.07L37,42s0,0,0,0,0,0,0,0,0,0,0,0v0s0,0,0,0v0h0v0s0,0,0,0,0,0,0,0h0a0,0,0,0,1,0,0h0s0,0,0,0v0s0,0,0,0h0s.06-.07.07-.07,0,0,0,0l0,0s0,0,0,0,0,0,0,0,0,0,0-.06S37.28,41.36,37.28,41.35ZM32.84,35.8s0,.05,0,.06v0s0,0,0,0v0s0,0,0,0,0,0,0,0v0s0,0,0,0h0v0a0,0,0,0,1,0,0l0,0s0,0,0,0,0,0,0,0v0s0,0,0,0v0s0,0,0,0,0,0,0,0,0,0,0,0,0,0,0,0,0,0,0,0v0s0,0,0,0l0,0Zm.74,1.13,0,0,0,0h0l-.05,0,0,0,0,0H33.3l0,0s0,0,0,0v0h0v0s0,0,0,0h0s0,0,0,0h0v0h.06v0h.1s0,0,0,0h.08S33.59,36.93,33.58,36.93Zm0-.1h.06s0,0,0,0h0s0,0,0,0h0l0,0s0,0,0,0h0v0s0,0,0,0h-.2s0,0,0,0Zm-.27-.28h.13l0,0h.05l0,0v0h0s0,0,0,0v0h0v0h0s0,0,0,0h0s0,0,0,0v0s0,0,0,0h0v0h0s0,0,0,0h0v0h0v0h0v0h0s0,0,0,0,0,0,0,0v0s0,0,0,0h0a0,0,0,0,0,0,0h0v0h0a0,0,0,0,1,0,0h0v0l0,0s0,0,0,0,0,0,0,0v0s0,0,0,0h0s0,0,0,0h0s0,0,0,0,0,0,0,0,0,0,0,0v0h0s0,0,0,0,0,0,0,0h0v0s0,0,0,0,0,0,0,0v0s0,0,0,0h0v0h0v0h0s0,0,0,0,0,0,0,0,0,0,0,0,0,0,0,0h0s0,0,0,0a0,0,0,0,1,0,0v0s0,0,0,0h0s0,0,0,0,0,0,0,0,0,0,0,0v0s0,0,0,0v0h0v0h0v0s0,0,0,0h0a0,0,0,0,1,0,0h0v0h0s0,0,0,0h0v0h0v0h0s0,0,0,0l0,0h.08s0,0,0,0h0s0,0,0,0v0Zm-.3-.13h0a0,0,0,0,0,0,0s0,0,0,0,0,0,0,0h0s0,0,0,0,0,0,0,0a0,0,0,0,0,0,0s0,0,0,0,0,0,0,0,0,0,0,0,0,0,0,0v0s0,0,0,0,0,0,0,0,0,0,0,0,0,0,0,0,0,0,0,0l0,0s0,0,0,0h-.09s0,0,0,0,0,0,0,0h0v0H33a0,0,0,0,0,0,0v0H33s0,0,0,0l0,0h0a.07.07,0,0,1,0,0s0,0,0,0,0,0,0,0l0,0h0l0,0,0,0Zm-.35-1.33s0,0,0,0,0,0,0,0h0l0,0,0,0s0,0,0,0h0s0,0,0,0h0l0,0h0s0,0,0,0,0,0,0,0v0s0,0,0,0,0,0,0,0h-.1s0,0,0,0h0s0,0,0,0h0s0,0,0,0h-.07S32.66,35.1,32.67,35.09Zm2.06,7h-.07s0,0,0,0h0v0h0l0,0,0,0,0,0s0,0,0,0Zm-.35-7.2h0s0,0,0,0,0,0,0,0h0l0,0s0,0,0,0Zm-.3,4.42h.08a0,0,0,0,0,0,0h.12s0,0,0,0a0,0,0,0,0,0,0H34.2s0,0,0,0h0s0,0,0,0h-.28s0,0,0,0h0v0s0,0,0,0h0l0,0h-.18s0,0,0,0,0,0,0,0,0,0,0,0h0l0,0h0s0,0,0,0H34s0,0,0,0,0,0,0,0,0,0,0,0h0a0,0,0,0,0,0,0Zm-.57,0h.06s0,0,0,0h.06s0,0,0,0l0,0,0,0h-.12s0,0,0,0,0,0,0,0S33.5,39.31,33.51,39.32ZM35,36.57l0,0h-.13l0,0,0,0s0,0,0,0,0,0,0,0,0,0,0,0,0,0,0,0h.07a0,0,0,0,0,0,0Zm1.07-2.27h.05s0,0,0,0h.06v0h0l0,0H36s0,0,0,0,0,0,0,0l0,0Zm1.82-.07h-.2s0,0,0,0h0l0,0h0l0,0h0v0a0,0,0,0,1,0,0h0s0,0,0,0h.09v0h-.07l0,0h0v0h0l.06,0,0,0h.07s0,0,0,0h.05l0,0a0,0,0,0,0,0,0h.07v0h.06v0h0a0,0,0,0,0,0,0v0h0v0h0s0,0,0,0v0h0s0,0,0,0h-.14v0h0a0,0,0,0,1,0,0h0v0h.18v0h0s0,0,0,0h0a0,0,0,0,0,0,0l0,0h.13l0,0h0s0,0,0,0h0s0,0,0,0v0h0l0,0v0h-.12v0h0s0,0,0,0h0v0a0,0,0,0,1,0,0h.06v0h-.06s0,0,0,0h0s0,0,0,0h0s0,0,0,0,0,0,0,0h0s0,0,0,0h0s0,0,0,0v0h0v0h0a0,0,0,0,0,0,0s0,0,0,0h-.09v0h.09s0,0,0,0h-.06s0,0,0,0h.07v0h0s0,0,0,0h-.06s0,0,0,0h-.06l0,0h0a0,0,0,0,0,0,0v0h0a.07.07,0,0,0,0,0,0,0,0,0,1,0,0v0s0,0,0,0h-.08l0,0h0v0h0v0h0s0,0,0,0h-.11s0,0,0,0h.15s0,0,0,0h-.1a0,0,0,0,1,0,0s0,0,0,0h-.13a.27.27,0,0,0-.09,0h-.07v0h0s0,0,0,0,0,0,0,0,0,0,0,0h-.1s0,0,0,0h0s0,0,0,0H36.6s0,0,0,0h0s0,0,0,0H36.5a0,0,0,0,0,0,0h-.14a0,0,0,0,0,0,0h-.08v0h0v0H36v0h-.16v0h0s0,0,0,0h-.13a0,0,0,0,0,0,0h0v0h0s0,0,0,0h0s0,0,0,0h0a0,0,0,0,1,0,0h.08s0,0,0,0h0s0,0,0,0h-.09s0,0,0,0h-.08s0,0,0,0h.07l0,0s0,0,0,0,0,0,0,0h0s.06,0,.06,0,0,0,0,0,0,0,0,0h0s0,0,0,0h0s0,0,0,0h.08l0,0h0s0,0,0,0h0s0,0,0,0h0v0h0s0,0,0,0,0,0,0,0,0,0,0,0l0,0h0s0,0,0,0,0,0,0,0,0,0,0,0,0,0,0,0h0s0,0,0,0h0v0l0,0h0a0,0,0,0,0,0,0h0s0,0,0,0h.1s0,0,0,0,0,0,0,0h0s0,0,0,0,0,0,0,0,0,0,0,0,0,0,0,0v0l0,0h0s0,0,0,0a0,0,0,0,1,0,0h-.09s0,0,0,0h0s0,0,0,0h.11s0,0,0,0h.09l0,0v0s0,0,0,0,0,0,0,0,0,0,0,0h0l0,0s0,0,0,0v0h0s0,0,0,0h0l0,0h0a0,0,0,0,1,0,0h0a0,0,0,0,0,0,0h0s0,0,0,0h0l0,0h0s0,0,0,0l0,0v0s0,0,0,0h0s0,0,0,0h0v0s0,0,0,0l0,0s0,0,0,0,0,0,0,0,0,0,0,0,0,0,0,0a.1.1,0,0,0,0,0s0,0,0,0h0v0h.07s0,0,0,0H36.1s0,0,0,0v0h0l0,0h0s0,0,0,0,0,0,0,0h0s0,0,0,0,0,0,0,0h0v0s0,0,0,0,0,0,0,0a0,0,0,0,1,0,0s0,0,0,0h0s0,0,0,0,0,0,0,0,0,0,0,0h0a0,0,0,0,1,0,0v0s0,0,0,0h0l0,0s0,0,0,0h0l0,0h0a0,0,0,0,1,0,0l0,0h0a0,0,0,0,1,0,0s0,0,0,0,0,0,0,0h.11s0,0,0,0,0,0,0,0h0a0,0,0,0,0,0,0,.08.08,0,0,0,0,0s0,0,0,0v0a0,0,0,0,0,0,0s0,0,0,0v0l0,0s0,0,0,0h.09s0,0,0,0v0h0a0,0,0,0,0,0,0h0a0,0,0,0,0,0,0v0h0l0,0h0a0,0,0,0,0,0,0v0h.06v0h0l0,0h0s0,0,0,0a0,0,0,0,1,0,0h0v0s0,0,0,0v0s0,0,0,0h0v0s0,0,0,0v0s0,0,0,0h0s0,0,0,0h0s0,0,0,0h.12l0,0h0s0,0,0,0,0,0,0,0h0v0s0,0,0,0h.07v0h0v0l0,0,0,0s0,0,0,0h.1s0,0,0,0h.22l0,0s0,0,0,0h.06s0,0,0,0h0S37.87,34.24,37.87,34.23Zm-3.34,5.06s0,0,0,0,0,0,0,0h-.1s0,0,0,0,0,0,0,0,0,0,0,0h.09S34.51,39.29,34.53,39.29Zm.48-3,.06,0s0,0,0,0H35l0,0h0l0,0h0s0,0,0,0l0,0s0,0,0,0S35,36.32,35,36.31Z"/></g></g></svg>