<svg xmlns="http://www.w3.org/2000/svg" viewBox="0 0 72.21 74"><defs><style>.cls-1{fill:#69779b;}.cls-2{fill:#acdbdf;}.cls-3{fill:#ffad60;}</style></defs><title>colabration</title><g id="Layer_2" data-name="Layer 2"><g id="Layer_1-2" data-name="Layer 1"><polygon class="cls-1" points="50.88 16 53.58 18.91 45.82 27.79 43.04 24.98 50.88 16"/><polygon class="cls-2" points="53.58 18.91 68.89 35.36 61.27 43.39 45.82 27.79 53.58 18.91"/><g id="_1" data-name="1"><path class="cls-3" d="M68.91,40.88l-12.31,12-8.77-8,1.08-1.12a5.82,5.82,0,0,0,1.61-3.95L50.59,34A1.8,1.8,0,0,1,51,32.67a1.69,1.69,0,0,1,1.2-.59h.13a1.76,1.76,0,0,1,1.82,1.54l.39,3a.64.64,0,0,0,1.1.37l5.24-5.62A.7.7,0,0,1,62,31.4Z"/><path class="cls-3" d="M58.23,34.2l3.12-3.36.28-.28,3.56-3.35a1.51,1.51,0,0,1,2.17.09h0a1.6,1.6,0,0,1-.09,2.23l-6.42,6.24"/><path class="cls-3" d="M60.85,35.77l7.37-7.13a1.52,1.52,0,0,1,2.18.09h0A1.6,1.6,0,0,1,70.31,31L63.16,37.6"/><path class="cls-3" d="M63.16,37.6l6.46-6a1.51,1.51,0,0,1,2.17.09h0a1.6,1.6,0,0,1-.09,2.23l-6.6,6.16"/><path class="cls-3" d="M65.1,40.09l4.53-4.2A1.51,1.51,0,0,1,71.8,36h0a1.6,1.6,0,0,1-.09,2.23l-5.29,5.1"/><polygon class="cls-1" points="56.6 52.91 53.76 55.69 45.09 47.74 47.83 44.88 56.6 52.91"/><polygon class="cls-2" points="53.76 55.69 37.7 71.37 29.86 63.56 45.09 47.74 53.76 55.69"/></g><g id="_4" data-name="4"><path class="cls-3" d="M33.43,70.62,21.69,58l7.84-9,1.09,1.1a5.53,5.53,0,0,0,3.85,1.65l5.72.08a1.72,1.72,0,0,1,1.26.45A1.76,1.76,0,0,1,42,53.53v.13a1.76,1.76,0,0,1-1.5,1.86l-2.9.4a.67.67,0,0,0-.36,1.13l5.48,5.37a.74.74,0,0,1-.07,1.12Z"/><path class="cls-3" d="M40,59.68l3.28,3.19.28.29,3.27,3.65a1.61,1.61,0,0,1-.1,2.23h0a1.51,1.51,0,0,1-2.17-.1l-6.09-6.58"/><path class="cls-3" d="M38.42,62.36l7,7.56a1.6,1.6,0,0,1-.09,2.23h0a1.5,1.5,0,0,1-2.17-.1l-6.49-7.32"/><path class="cls-3" d="M36.63,64.73l5.85,6.61a1.61,1.61,0,0,1-.09,2.23h0a1.52,1.52,0,0,1-2.18-.09l-6-6.76"/><path class="cls-3" d="M34.2,66.72l4.1,4.63a1.6,1.6,0,0,1-.09,2.23h0A1.51,1.51,0,0,1,36,73.49l-5-5.42"/><polygon class="cls-1" points="21.69 58 18.98 55.09 26.74 46.21 29.53 49.02 21.69 58"/><polygon class="cls-2" points="18.98 55.09 3.68 38.64 11.3 30.61 26.74 46.21 18.98 55.09"/></g><g id="_3" data-name="3"><path class="cls-3" d="M3.3,33.37l12.31-12,8.77,8L23.3,30.49a5.82,5.82,0,0,0-1.61,3.95l-.07,5.86a1.83,1.83,0,0,1-.44,1.28,1.74,1.74,0,0,1-1.2.6h-.13A1.74,1.74,0,0,1,18,40.64l-.39-3a.64.64,0,0,0-1.1-.36L11.3,42.92a.7.7,0,0,1-1.09-.07Z"/><path class="cls-3" d="M14,40.05l-3.12,3.36-.28.28L7,47A1.52,1.52,0,0,1,4.84,47h0a1.61,1.61,0,0,1,.1-2.23l6.42-6.24"/><path class="cls-3" d="M11.36,38.48,4,45.62a1.51,1.51,0,0,1-2.17-.1h0a1.6,1.6,0,0,1,.09-2.23L9,36.65"/><path class="cls-3" d="M9,36.65l-6.45,6a1.51,1.51,0,0,1-2.17-.09h0a1.6,1.6,0,0,1,.09-2.23l6.6-6.16"/><path class="cls-3" d="M7.11,34.16l-4.53,4.2a1.51,1.51,0,0,1-2.17-.09h0A1.6,1.6,0,0,1,.5,36l5.29-5.1"/><polygon class="cls-1" points="15.61 21.34 18.45 18.57 27.12 26.52 24.38 29.37 15.61 21.34"/><polygon class="cls-2" points="18.45 18.57 34.51 2.88 42.35 10.69 27.12 26.52 18.45 18.57"/></g><path class="cls-3" d="M39.13,3.38,50.88,16,43,25,42,23.88a5.53,5.53,0,0,0-3.86-1.65l-5.72-.08a1.7,1.7,0,0,1-1.25-.45,1.81,1.81,0,0,1-.58-1.23v-.13A1.77,1.77,0,0,1,32,18.48l2.9-.4A.66.66,0,0,0,35.29,17l-5.47-5.37a.74.74,0,0,1,.06-1.12Z"/><path class="cls-3" d="M32.61,14.32l-3.27-3.19-.28-.29L25.79,7.19A1.62,1.62,0,0,1,25.88,5h0a1.52,1.52,0,0,1,2.18.1l6.09,6.58"/><path class="cls-3" d="M34.15,11.64l-7-7.56a1.61,1.61,0,0,1,.1-2.23h0a1.5,1.5,0,0,1,2.17.1l6.49,7.32"/><path class="cls-3" d="M35.94,9.27,30.09,2.66A1.6,1.6,0,0,1,30.18.43h0a1.51,1.51,0,0,1,2.17.09l6,6.76"/><path class="cls-3" d="M38.37,7.28,34.26,2.65A1.62,1.62,0,0,1,34.35.42h0a1.52,1.52,0,0,1,2.18.09l5,5.42"/></g></g></svg>